<svg width="26" height="26" viewBox="0 0 26 26" fill="none" xmlns="http://www.w3.org/2000/svg">
<path d="M12.3018 22.7078C12.6927 23.0979 13.3259 23.0973 13.7161 22.7065L20.0741 16.3366C20.4643 15.9457 20.4637 15.3126 20.0728 14.9224C19.682 14.5323 19.0488 14.5328 18.6586 14.9237L13.007 20.5858L7.34493 14.9342C6.95404 14.544 6.32088 14.5446 5.93072 14.9355C5.54055 15.3263 5.54114 15.9595 5.93202 16.3497L12.3018 22.7078ZM13.9917 3.99909C13.9912 3.4468 13.5431 2.9995 12.9908 3.00001C12.4385 3.00052 11.9912 3.44865 11.9917 4.00093L13.9917 3.99909ZM14.0083 21.9991L13.9917 3.99909L11.9917 4.00093L12.0083 22.0009L14.0083 21.9991Z" fill="#666666"/>
</svg>
