<svg width="24" height="24" viewBox="0 0 24 24" fill="none" xmlns="http://www.w3.org/2000/svg">
<path d="M11.1754 16.7623C11.1971 16.8166 11.208 16.898 11.208 17.0066C11.208 17.1043 11.208 17.1857 11.208 17.2509C11.208 17.3377 11.1917 17.4191 11.1591 17.4951C11.1266 17.5711 11.0831 17.6417 11.0289 17.7069C10.9311 17.8371 10.79 17.9349 10.6054 18C10.3449 18.0869 10.1006 18.1303 9.87257 18.1303C9.75314 18.1411 9.62829 18.1466 9.498 18.1466C9.36771 18.1466 9.23743 18.1574 9.10714 18.1791H9.042C8.206 18.19 7.34286 18.19 6.45257 18.1791C6.23543 18.1683 5.99114 18.1683 5.71971 18.1791C5.44829 18.2009 5.18229 18.1954 4.92171 18.1629C4.66114 18.1411 4.42229 18.0814 4.20514 17.9837C3.99886 17.8751 3.85229 17.7069 3.76543 17.4789C3.74371 17.4246 3.72743 17.3757 3.71657 17.3323C3.70571 17.278 3.70029 17.2237 3.70029 17.1694C3.65686 16.8003 3.64057 16.4366 3.65143 16.0783C3.66229 15.72 3.66771 15.3671 3.66771 15.0197L3.70029 12.6583V10.476C3.70029 10.0851 3.70029 9.73771 3.70029 9.43371C3.71114 9.12971 3.722 8.79314 3.73286 8.424V8.34257C3.74371 8.234 3.74914 8.12543 3.74914 8.01686C3.76 7.90829 3.76543 7.79971 3.76543 7.69114C3.78714 7.44143 3.84686 7.22971 3.94457 7.056C4.00971 6.89314 4.12371 6.76286 4.28657 6.66514C4.42771 6.56743 4.596 6.51857 4.79143 6.51857C4.86743 6.51857 4.938 6.524 5.00314 6.53486C5.07914 6.53486 5.14971 6.54029 5.21486 6.55114C5.28 6.562 5.33971 6.58371 5.394 6.61629C5.45914 6.64886 5.52429 6.69229 5.58943 6.74657C5.65457 6.82257 5.71429 6.91486 5.76857 7.02343C5.812 7.14286 5.83914 7.26229 5.85 7.38171C5.86086 7.45771 5.87171 7.52829 5.88257 7.59343C5.89343 7.65857 5.89886 7.72371 5.89886 7.78886C5.87714 7.854 5.86629 7.91914 5.86629 7.98429C5.86629 8.04943 5.86629 8.10914 5.86629 8.16343V8.45657L5.80114 16.1271L9.02571 16.1597H9.79114C9.85629 16.1597 9.92686 16.1651 10.0029 16.176C10.0789 16.176 10.1549 16.1814 10.2309 16.1923C10.3177 16.2031 10.3937 16.214 10.4589 16.2249C10.524 16.2357 10.5891 16.252 10.6543 16.2737C10.7737 16.3063 10.8714 16.3606 10.9474 16.4366C11.0669 16.5451 11.1429 16.6537 11.1754 16.7623ZM17.7703 6.24171C17.8463 6.22 17.9168 6.20371 17.982 6.19286C18.0471 6.17114 18.1123 6.15486 18.1774 6.144C18.2534 6.12229 18.3457 6.11143 18.4543 6.11143C18.5737 6.10057 18.6823 6.106 18.78 6.12771C18.8885 6.13857 18.9863 6.17114 19.0731 6.22543C19.1708 6.26886 19.2414 6.33943 19.2848 6.43714C19.3283 6.54571 19.3554 6.676 19.3663 6.828C19.388 6.96914 19.3988 7.11571 19.3988 7.26771C19.3988 7.41971 19.3934 7.57171 19.3825 7.72371C19.3825 7.86486 19.3825 7.99514 19.3825 8.11457V16.4366C19.3825 16.556 19.3825 16.6809 19.3825 16.8111C19.3934 16.9306 19.3934 17.0554 19.3825 17.1857C19.3717 17.316 19.3391 17.4409 19.2848 17.5603C19.2305 17.6689 19.1491 17.7611 19.0405 17.8371C18.8885 17.9566 18.6823 18.0163 18.4217 18.0163C18.172 18.0271 17.9548 18 17.7703 17.9349C17.5748 17.8697 17.4554 17.7449 17.412 17.5603C17.3794 17.3757 17.3631 17.1911 17.3631 17.0066C17.2871 15.5734 17.2491 14.1729 17.2491 12.8049C17.26 11.426 17.2654 10.0091 17.2654 8.55429C17.2437 8.60857 17.1677 8.65743 17.0374 8.70086C16.918 8.74429 16.7768 8.78229 16.614 8.81486C16.462 8.84743 16.3154 8.87457 16.1743 8.89629C16.0331 8.918 15.9408 8.92886 15.8974 8.92886C15.6151 8.96143 15.3545 8.93429 15.1157 8.84743C14.8877 8.74971 14.7574 8.53257 14.7248 8.196C14.6814 7.84857 14.7574 7.57714 14.9528 7.38171C15.1591 7.18629 15.4197 7.03971 15.7345 6.942C16.082 6.82257 16.4185 6.70314 16.7443 6.58371C17.0808 6.45343 17.4228 6.33943 17.7703 6.24171Z" fill="#666666"/>
</svg>
