<svg width="24" height="24" viewBox="0 0 24 24" fill="none" xmlns="http://www.w3.org/2000/svg">
<path d="M11.1754 16.7623C11.1971 16.8166 11.208 16.898 11.208 17.0066C11.208 17.1043 11.208 17.1857 11.208 17.2509C11.208 17.3377 11.1917 17.4191 11.1591 17.4951C11.1266 17.5711 11.0831 17.6417 11.0289 17.7069C10.9311 17.8371 10.79 17.9349 10.6054 18C10.3449 18.0869 10.1006 18.1303 9.87257 18.1303C9.75314 18.1411 9.62829 18.1466 9.498 18.1466C9.36771 18.1466 9.23743 18.1574 9.10714 18.1791H9.042C8.206 18.19 7.34286 18.19 6.45257 18.1791C6.23543 18.1683 5.99114 18.1683 5.71971 18.1791C5.44829 18.2009 5.18229 18.1954 4.92171 18.1629C4.66114 18.1411 4.42229 18.0814 4.20514 17.9837C3.99886 17.8751 3.85229 17.7069 3.76543 17.4789C3.74371 17.4246 3.72743 17.3757 3.71657 17.3323C3.70571 17.278 3.70029 17.2237 3.70029 17.1694C3.65686 16.8003 3.64057 16.4366 3.65143 16.0783C3.66229 15.72 3.66771 15.3671 3.66771 15.0197L3.70029 12.6583V10.476C3.70029 10.0851 3.70029 9.73771 3.70029 9.43371C3.71114 9.12971 3.722 8.79314 3.73286 8.424V8.34257C3.74371 8.234 3.74914 8.12543 3.74914 8.01686C3.76 7.90829 3.76543 7.79971 3.76543 7.69114C3.78714 7.44143 3.84686 7.22971 3.94457 7.056C4.00971 6.89314 4.12371 6.76286 4.28657 6.66514C4.42771 6.56743 4.596 6.51857 4.79143 6.51857C4.86743 6.51857 4.938 6.524 5.00314 6.53486C5.07914 6.53486 5.14971 6.54029 5.21486 6.55114C5.28 6.562 5.33971 6.58371 5.394 6.61629C5.45914 6.64886 5.52429 6.69229 5.58943 6.74657C5.65457 6.82257 5.71429 6.91486 5.76857 7.02343C5.812 7.14286 5.83914 7.26229 5.85 7.38171C5.86086 7.45771 5.87171 7.52829 5.88257 7.59343C5.89343 7.65857 5.89886 7.72371 5.89886 7.78886C5.87714 7.854 5.86629 7.91914 5.86629 7.98429C5.86629 8.04943 5.86629 8.10914 5.86629 8.16343V8.45657L5.80114 16.1271L9.02571 16.1597H9.79114C9.85629 16.1597 9.92686 16.1651 10.0029 16.176C10.0789 16.176 10.1549 16.1814 10.2309 16.1923C10.3177 16.2031 10.3937 16.214 10.4589 16.2249C10.524 16.2357 10.5891 16.252 10.6543 16.2737C10.7737 16.3063 10.8714 16.3606 10.9474 16.4366C11.0669 16.5451 11.1429 16.6537 11.1754 16.7623ZM16.956 10.0689C16.7931 10.3186 16.5977 10.4706 16.3697 10.5249C16.1525 10.5791 15.9408 10.5629 15.7345 10.476C15.5283 10.3891 15.3545 10.248 15.2134 10.0526C15.0831 9.84629 15.0288 9.61286 15.0505 9.35229C15.0614 9.17857 15.1048 8.98857 15.1808 8.78229C15.2568 8.576 15.3491 8.38057 15.4577 8.196C15.5771 8.00057 15.702 7.82143 15.8323 7.65857C15.9734 7.48486 16.1145 7.33829 16.2557 7.21886C16.5163 7.01257 16.8094 6.83343 17.1351 6.68143C17.4717 6.52943 17.8191 6.41543 18.1774 6.33943C18.5465 6.26343 18.9103 6.23086 19.2685 6.24171C19.6377 6.25257 19.9797 6.30686 20.2945 6.40457C21.1631 6.676 21.8363 7.10486 22.314 7.69114C22.7917 8.27743 23.0305 9.03743 23.0305 9.97114C23.0305 10.4163 22.9871 10.818 22.9003 11.1763C22.8243 11.5237 22.6831 11.8603 22.4768 12.186C22.2814 12.5117 22.0154 12.8429 21.6788 13.1794C21.3531 13.516 20.946 13.8851 20.4574 14.2869C20.2945 14.428 20.1263 14.5691 19.9525 14.7103C19.7788 14.8514 19.6051 14.9926 19.4314 15.1337C19.3771 15.1771 19.274 15.2423 19.122 15.3291C18.97 15.416 18.8343 15.5029 18.7148 15.5897C18.5954 15.6766 18.5248 15.758 18.5031 15.834C18.4814 15.91 18.5683 15.9534 18.7637 15.9643C19.0025 15.986 19.1925 15.9914 19.3337 15.9806C19.4748 15.9697 19.6648 15.9643 19.9037 15.9643C20.186 15.9643 20.4628 15.9589 20.7343 15.948C21.0057 15.9371 21.2771 15.9426 21.5485 15.9643C21.6571 15.9751 21.7765 15.9806 21.9068 15.9806C22.0371 15.9697 22.1674 15.9697 22.2977 15.9806C22.428 15.9806 22.5528 15.9969 22.6723 16.0294C22.7917 16.0511 22.8948 16.1 22.9817 16.176C23.0685 16.252 23.1337 16.3551 23.1771 16.4854C23.2205 16.6157 23.2423 16.7569 23.2423 16.9089C23.2531 17.05 23.2423 17.1911 23.2097 17.3323C23.1771 17.4626 23.1228 17.5657 23.0468 17.6417C22.9057 17.8046 22.732 17.886 22.5257 17.886C22.3194 17.8751 22.124 17.8697 21.9394 17.8697H16.0928C15.9843 17.8697 15.8648 17.8751 15.7345 17.886C15.6151 17.8969 15.5065 17.886 15.4088 17.8534C15.2134 17.7991 15.1157 17.696 15.1157 17.544C15.1265 17.392 15.132 17.2346 15.132 17.0717C15.132 16.8003 15.1971 16.5506 15.3274 16.3226C15.4577 16.0837 15.6205 15.8666 15.816 15.6711C16.0223 15.4649 16.2394 15.2749 16.4674 15.1011C16.6954 14.9274 16.9071 14.7591 17.1025 14.5963C17.3848 14.3466 17.6888 14.0969 18.0145 13.8471C18.3403 13.5974 18.6497 13.3477 18.9428 13.098C19.3228 12.7831 19.6431 12.4954 19.9037 12.2349C20.1751 11.9743 20.3923 11.73 20.5551 11.502C20.718 11.274 20.8374 11.0514 20.9134 10.8343C20.9894 10.6063 21.0274 10.3674 21.0274 10.1177C21.0274 9.564 20.8591 9.14057 20.5225 8.84743C20.186 8.54343 19.7571 8.39143 19.236 8.39143C18.856 8.39143 18.4977 8.47286 18.1611 8.63571C17.8354 8.79857 17.564 9.03743 17.3468 9.35229C17.2817 9.47171 17.2165 9.59657 17.1514 9.72686C17.0971 9.84629 17.032 9.96029 16.956 10.0689Z" fill="#666666"/>
</svg>
