<svg width="24" height="24" viewBox="0 0 24 24" fill="none" xmlns="http://www.w3.org/2000/svg">
<path d="M11.1754 16.7623C11.1971 16.8166 11.208 16.898 11.208 17.0066C11.208 17.1043 11.208 17.1857 11.208 17.2509C11.208 17.3377 11.1917 17.4191 11.1591 17.4951C11.1266 17.5711 11.0831 17.6417 11.0289 17.7069C10.9311 17.8371 10.79 17.9349 10.6054 18C10.3449 18.0869 10.1006 18.1303 9.87257 18.1303C9.75314 18.1411 9.62829 18.1466 9.498 18.1466C9.36771 18.1466 9.23743 18.1574 9.10714 18.1791H9.042C8.206 18.19 7.34286 18.19 6.45257 18.1791C6.23543 18.1683 5.99114 18.1683 5.71971 18.1791C5.44829 18.2009 5.18229 18.1954 4.92171 18.1629C4.66114 18.1411 4.42229 18.0814 4.20514 17.9837C3.99886 17.8751 3.85229 17.7069 3.76543 17.4789C3.74371 17.4246 3.72743 17.3757 3.71657 17.3323C3.70571 17.278 3.70029 17.2237 3.70029 17.1694C3.65686 16.8003 3.64057 16.4366 3.65143 16.0783C3.66229 15.72 3.66771 15.3671 3.66771 15.0197L3.70029 12.6583V10.476C3.70029 10.0851 3.70029 9.73771 3.70029 9.43371C3.71114 9.12971 3.722 8.79314 3.73286 8.424V8.34257C3.74371 8.234 3.74914 8.12543 3.74914 8.01686C3.76 7.90829 3.76543 7.79971 3.76543 7.69114C3.78714 7.44143 3.84686 7.22971 3.94457 7.056C4.00971 6.89314 4.12371 6.76286 4.28657 6.66514C4.42771 6.56743 4.596 6.51857 4.79143 6.51857C4.86743 6.51857 4.938 6.524 5.00314 6.53486C5.07914 6.53486 5.14971 6.54029 5.21486 6.55114C5.28 6.562 5.33971 6.58371 5.394 6.61629C5.45914 6.64886 5.52429 6.69229 5.58943 6.74657C5.65457 6.82257 5.71429 6.91486 5.76857 7.02343C5.812 7.14286 5.83914 7.26229 5.85 7.38171C5.86086 7.45771 5.87171 7.52829 5.88257 7.59343C5.89343 7.65857 5.89886 7.72371 5.89886 7.78886C5.87714 7.854 5.86629 7.91914 5.86629 7.98429C5.86629 8.04943 5.86629 8.10914 5.86629 8.16343V8.45657L5.80114 16.1271L9.02571 16.1597H9.79114C9.85629 16.1597 9.92686 16.1651 10.0029 16.176C10.0789 16.176 10.1549 16.1814 10.2309 16.1923C10.3177 16.2031 10.3937 16.214 10.4589 16.2249C10.524 16.2357 10.5891 16.252 10.6543 16.2737C10.7737 16.3063 10.8714 16.3606 10.9474 16.4366C11.0669 16.5451 11.1429 16.6537 11.1754 16.7623ZM15.3111 8.04943C15.17 7.91914 15.0994 7.72371 15.0994 7.46314C15.1103 7.34371 15.132 7.22971 15.1645 7.12114C15.1971 7.00171 15.2568 6.89857 15.3437 6.81171C15.5825 6.59457 15.8377 6.46971 16.1091 6.43714C16.3805 6.40457 16.6737 6.37743 16.9885 6.35571C17.2383 6.34486 17.4608 6.34486 17.6563 6.35571C17.8517 6.35571 18.0743 6.35571 18.324 6.35571C18.704 6.35571 19.1165 6.36114 19.5617 6.372C20.0177 6.38286 20.4465 6.39914 20.8483 6.42086C21.0111 6.43171 21.174 6.45343 21.3368 6.486C21.4997 6.51857 21.6463 6.57829 21.7765 6.66514C21.9068 6.74114 22.01 6.84429 22.086 6.97457C22.1728 7.094 22.2217 7.246 22.2325 7.43057C22.2434 7.64771 22.2108 7.854 22.1348 8.04943C22.0697 8.24486 21.9774 8.43486 21.858 8.61943C21.7385 8.79314 21.6028 8.96143 21.4508 9.12429C21.3097 9.27629 21.174 9.41743 21.0437 9.54771C20.8048 9.79743 20.5334 10.0634 20.2294 10.3457C19.9254 10.628 19.654 10.894 19.4151 11.1437C19.8385 11.198 20.2457 11.2957 20.6365 11.4369C21.0383 11.578 21.3911 11.7734 21.6951 12.0231C21.9991 12.2729 22.238 12.5877 22.4117 12.9677C22.5963 13.3369 22.6885 13.782 22.6885 14.3031C22.6885 14.8243 22.5854 15.3074 22.3791 15.7526C22.1837 16.1977 21.9068 16.5886 21.5485 16.9251C21.1903 17.2509 20.7668 17.506 20.2783 17.6906C19.7897 17.8751 19.2523 17.9674 18.666 17.9674C18.4163 17.9674 18.1448 17.9457 17.8517 17.9023C17.5694 17.8589 17.2871 17.7937 17.0048 17.7069C16.7225 17.62 16.4511 17.5114 16.1905 17.3811C15.9408 17.24 15.7237 17.0717 15.5391 16.8763C15.4088 16.746 15.2948 16.594 15.1971 16.4203C15.1103 16.2357 15.056 16.0511 15.0343 15.8666C15.0234 15.6711 15.0614 15.4974 15.1483 15.3454C15.2351 15.1826 15.3871 15.0631 15.6043 14.9871C15.7671 14.9329 15.9245 14.9111 16.0765 14.922C16.2285 14.9329 16.3751 14.9709 16.5163 15.036C16.6574 15.0903 16.7931 15.1554 16.9234 15.2314C17.0645 15.3074 17.2003 15.3834 17.3305 15.4594C17.7323 15.7091 18.1503 15.8557 18.5845 15.8991C19.0297 15.9426 19.464 15.8394 19.8874 15.5897C20.1263 15.4486 20.3 15.2749 20.4085 15.0686C20.5171 14.8514 20.5605 14.6343 20.5388 14.4171C20.528 14.2 20.4574 13.9937 20.3271 13.7983C20.2077 13.6029 20.0394 13.44 19.8223 13.3097C19.616 13.1903 19.388 13.1089 19.1383 13.0654C18.8885 13.022 18.6388 12.9786 18.3891 12.9351C18.1394 12.8917 17.9005 12.832 17.6725 12.756C17.4445 12.68 17.2491 12.5497 17.0863 12.3651C16.9017 12.1589 16.842 11.9363 16.9071 11.6974C16.9723 11.4586 17.0917 11.2251 17.2654 10.9971C17.45 10.7691 17.6508 10.552 17.868 10.3457C18.096 10.1394 18.2751 9.96571 18.4054 9.82457C18.4814 9.74857 18.5683 9.65629 18.666 9.54771C18.7745 9.43914 18.8723 9.33057 18.9591 9.222C19.0568 9.11343 19.1383 9.01029 19.2034 8.91257C19.2794 8.804 19.3283 8.70629 19.35 8.61943C19.3825 8.53257 19.3663 8.47286 19.3011 8.44029C19.236 8.39686 19.1545 8.37514 19.0568 8.37514C18.9591 8.36429 18.8505 8.36429 18.7311 8.37514C18.6225 8.37514 18.5357 8.37514 18.4705 8.37514H17.3794C17.2274 8.37514 17.0591 8.38057 16.8745 8.39143C16.69 8.39143 16.5 8.386 16.3045 8.37514C16.12 8.35343 15.9354 8.32086 15.7508 8.27743C15.5771 8.234 15.4305 8.158 15.3111 8.04943Z" fill="#666666"/>
</svg>
