<svg width="24" height="24" viewBox="0 0 24 24" fill="none" xmlns="http://www.w3.org/2000/svg">
<path d="M12.0549 17.2834C12.0657 17.392 12.0549 17.4951 12.0223 17.5929C12.0006 17.658 11.968 17.7123 11.9246 17.7557C11.892 17.7991 11.8486 17.8426 11.7943 17.886C11.6966 17.9511 11.5771 18.0109 11.436 18.0651C11.3491 18.0869 11.2623 18.1031 11.1754 18.114C11.0994 18.1357 11.018 18.1357 10.9311 18.114C10.7574 18.1031 10.6054 18.038 10.4751 17.9186C10.2906 17.7666 10.1386 17.5983 10.0191 17.4137C9.96486 17.3269 9.90514 17.2291 9.84 17.1206C9.77486 17.012 9.71514 16.898 9.66086 16.7786L7.85314 13.3423C7.76629 13.3423 7.67943 13.3477 7.59257 13.3586C7.50571 13.3586 7.41886 13.364 7.332 13.3749C7.104 13.3966 6.88686 13.402 6.68057 13.3911C6.48514 13.3803 6.27886 13.3803 6.06171 13.3911H5.75229V16.3389C5.75229 16.4257 5.74686 16.5071 5.736 16.5831C5.736 16.6591 5.736 16.7406 5.736 16.8274C5.736 16.8817 5.73057 16.9523 5.71971 17.0391C5.71971 17.126 5.71429 17.2074 5.70343 17.2834C5.68171 17.4029 5.63286 17.5277 5.55686 17.658C5.48086 17.7774 5.37771 17.8806 5.24743 17.9674C5.01943 18.1086 4.74257 18.1466 4.41686 18.0814C4.27571 18.0489 4.14 17.9946 4.00971 17.9186C3.96629 17.886 3.92829 17.848 3.89571 17.8046C3.86314 17.7503 3.836 17.696 3.81429 17.6417C3.79257 17.5874 3.77086 17.5331 3.74914 17.4789C3.73829 17.4137 3.722 17.354 3.70029 17.2997C3.66771 17.1911 3.65143 17.088 3.65143 16.9903V7.74C3.65143 7.67486 3.65143 7.60971 3.65143 7.54457C3.66229 7.46857 3.67314 7.40343 3.684 7.34914C3.69486 7.22971 3.73286 7.11029 3.798 6.99086C3.83057 6.86057 3.88486 6.76829 3.96086 6.714C4.026 6.64886 4.12371 6.59457 4.254 6.55114C4.39514 6.49686 4.596 6.47514 4.85657 6.486C5.34514 6.49686 5.82829 6.50229 6.306 6.50229C6.78371 6.50229 7.26143 6.51314 7.73914 6.53486C8.054 6.55657 8.38514 6.59457 8.73257 6.64886C9.09086 6.69229 9.422 6.77371 9.726 6.89314C9.92143 6.96914 10.1006 7.04514 10.2634 7.12114C10.4697 7.24057 10.6326 7.35457 10.752 7.46314C11.132 7.81057 11.4197 8.22857 11.6151 8.71714C11.8106 9.20571 11.9083 9.69971 11.9083 10.1991C11.9083 10.7854 11.7671 11.3229 11.4849 11.8114C11.2134 12.3 10.7737 12.6637 10.1657 12.9026C10.144 12.9243 10.1114 12.9406 10.068 12.9514C10.0354 12.9514 10.0083 12.9569 9.98657 12.9677L11.4849 15.9806L11.6314 16.2411C11.6531 16.2846 11.6803 16.3334 11.7129 16.3877C11.7454 16.442 11.7726 16.4963 11.7943 16.5506C11.8269 16.6049 11.854 16.6646 11.8757 16.7297C11.9083 16.7949 11.9409 16.8546 11.9734 16.9089C12.006 17.0609 12.0331 17.1857 12.0549 17.2834ZM7.98343 11.4857C8.17886 11.4857 8.36343 11.4531 8.53714 11.388C8.72171 11.312 8.88457 11.2143 9.02571 11.0949C9.17771 10.9754 9.30257 10.8397 9.40029 10.6877C9.498 10.5249 9.55229 10.3511 9.56314 10.1666C9.60657 9.62371 9.46543 9.222 9.13971 8.96143C8.814 8.69 8.38514 8.54343 7.85314 8.52171C7.53829 8.5 7.19086 8.48914 6.81086 8.48914C6.44171 8.48914 6.08886 8.48914 5.75229 8.48914C5.76314 8.93429 5.76314 9.39029 5.75229 9.85714C5.75229 10.3131 5.75229 10.856 5.75229 11.4857H7.98343ZM18.6291 6.24171C18.7051 6.22 18.7756 6.20371 18.8408 6.19286C18.9059 6.17114 18.9711 6.15486 19.0362 6.144C19.1122 6.12229 19.2045 6.11143 19.3131 6.11143C19.4325 6.10057 19.5411 6.106 19.6388 6.12771C19.7474 6.13857 19.8451 6.17114 19.9319 6.22543C20.0296 6.26886 20.1002 6.33943 20.1436 6.43714C20.1871 6.54571 20.2142 6.676 20.2251 6.828C20.2468 6.96914 20.2576 7.11571 20.2576 7.26771C20.2576 7.41971 20.2522 7.57171 20.2414 7.72371C20.2414 7.86486 20.2414 7.99514 20.2414 8.11457V16.4366C20.2414 16.556 20.2414 16.6809 20.2414 16.8111C20.2522 16.9306 20.2522 17.0554 20.2414 17.1857C20.2305 17.316 20.1979 17.4409 20.1436 17.5603C20.0894 17.6689 20.0079 17.7611 19.8994 17.8371C19.7474 17.9566 19.5411 18.0163 19.2805 18.0163C19.0308 18.0271 18.8136 18 18.6291 17.9349C18.4336 17.8697 18.3142 17.7449 18.2708 17.5603C18.2382 17.3757 18.2219 17.1911 18.2219 17.0066C18.1459 15.5734 18.1079 14.1729 18.1079 12.8049C18.1188 11.426 18.1242 10.0091 18.1242 8.55429C18.1025 8.60857 18.0265 8.65743 17.8962 8.70086C17.7768 8.74429 17.6356 8.78229 17.4728 8.81486C17.3208 8.84743 17.1742 8.87457 17.0331 8.89629C16.8919 8.918 16.7996 8.92886 16.7562 8.92886C16.4739 8.96143 16.2134 8.93429 15.9745 8.84743C15.7465 8.74971 15.6162 8.53257 15.5836 8.196C15.5402 7.84857 15.6162 7.57714 15.8116 7.38171C16.0179 7.18629 16.2785 7.03971 16.5934 6.942C16.9408 6.82257 17.2774 6.70314 17.6031 6.58371C17.9396 6.45343 18.2816 6.33943 18.6291 6.24171Z" fill="#666666"/>
</svg>
