<svg width="24" height="24" viewBox="0 0 24 24" fill="none" xmlns="http://www.w3.org/2000/svg">
<g clip-path="url(#clip0_1_195)">
<path d="M12.0549 17.2834C12.0657 17.392 12.0549 17.4951 12.0223 17.5929C12.0006 17.658 11.968 17.7123 11.9246 17.7557C11.892 17.7991 11.8486 17.8426 11.7943 17.886C11.6966 17.9511 11.5771 18.0109 11.436 18.0651C11.3491 18.0869 11.2623 18.1031 11.1754 18.114C11.0994 18.1357 11.018 18.1357 10.9311 18.114C10.7574 18.1031 10.6054 18.038 10.4751 17.9186C10.2906 17.7666 10.1386 17.5983 10.0191 17.4137C9.96486 17.3269 9.90514 17.2291 9.84 17.1206C9.77486 17.012 9.71514 16.898 9.66086 16.7786L7.85314 13.3423C7.76629 13.3423 7.67943 13.3477 7.59257 13.3586C7.50571 13.3586 7.41886 13.364 7.332 13.3749C7.104 13.3966 6.88686 13.402 6.68057 13.3911C6.48514 13.3803 6.27886 13.3803 6.06171 13.3911H5.75229V16.3389C5.75229 16.4257 5.74686 16.5071 5.736 16.5831C5.736 16.6591 5.736 16.7406 5.736 16.8274C5.736 16.8817 5.73057 16.9523 5.71971 17.0391C5.71971 17.126 5.71429 17.2074 5.70343 17.2834C5.68171 17.4029 5.63286 17.5277 5.55686 17.658C5.48086 17.7774 5.37771 17.8806 5.24743 17.9674C5.01943 18.1086 4.74257 18.1466 4.41686 18.0814C4.27571 18.0489 4.14 17.9946 4.00971 17.9186C3.96629 17.886 3.92829 17.848 3.89571 17.8046C3.86314 17.7503 3.836 17.696 3.81429 17.6417C3.79257 17.5874 3.77086 17.5331 3.74914 17.4789C3.73829 17.4137 3.722 17.354 3.70029 17.2997C3.66771 17.1911 3.65143 17.088 3.65143 16.9903V7.74C3.65143 7.67486 3.65143 7.60971 3.65143 7.54457C3.66229 7.46857 3.67314 7.40343 3.684 7.34914C3.69486 7.22971 3.73286 7.11029 3.798 6.99086C3.83057 6.86057 3.88486 6.76829 3.96086 6.714C4.026 6.64886 4.12371 6.59457 4.254 6.55114C4.39514 6.49686 4.596 6.47514 4.85657 6.486C5.34514 6.49686 5.82829 6.50229 6.306 6.50229C6.78371 6.50229 7.26143 6.51314 7.73914 6.53486C8.054 6.55657 8.38514 6.59457 8.73257 6.64886C9.09086 6.69229 9.422 6.77371 9.726 6.89314C9.92143 6.96914 10.1006 7.04514 10.2634 7.12114C10.4697 7.24057 10.6326 7.35457 10.752 7.46314C11.132 7.81057 11.4197 8.22857 11.6151 8.71714C11.8106 9.20571 11.9083 9.69971 11.9083 10.1991C11.9083 10.7854 11.7671 11.3229 11.4849 11.8114C11.2134 12.3 10.7737 12.6637 10.1657 12.9026C10.144 12.9243 10.1114 12.9406 10.068 12.9514C10.0354 12.9514 10.0083 12.9569 9.98657 12.9677L11.4849 15.9806L11.6314 16.2411C11.6531 16.2846 11.6803 16.3334 11.7129 16.3877C11.7454 16.442 11.7726 16.4963 11.7943 16.5506C11.8269 16.6049 11.854 16.6646 11.8757 16.7297C11.9083 16.7949 11.9409 16.8546 11.9734 16.9089C12.006 17.0609 12.0331 17.1857 12.0549 17.2834ZM7.98343 11.4857C8.17886 11.4857 8.36343 11.4531 8.53714 11.388C8.72171 11.312 8.88457 11.2143 9.02571 11.0949C9.17771 10.9754 9.30257 10.8397 9.40029 10.6877C9.498 10.5249 9.55229 10.3511 9.56314 10.1666C9.60657 9.62371 9.46543 9.222 9.13971 8.96143C8.814 8.69 8.38514 8.54343 7.85314 8.52171C7.53829 8.5 7.19086 8.48914 6.81086 8.48914C6.44171 8.48914 6.08886 8.48914 5.75229 8.48914C5.76314 8.93429 5.76314 9.39029 5.75229 9.85714C5.75229 10.3131 5.75229 10.856 5.75229 11.4857H7.98343ZM17.8148 10.0689C17.6519 10.3186 17.4565 10.4706 17.2285 10.5249C17.0114 10.5791 16.7996 10.5629 16.5934 10.476C16.3871 10.3891 16.2134 10.248 16.0722 10.0526C15.9419 9.84629 15.8876 9.61286 15.9094 9.35229C15.9202 9.17857 15.9636 8.98857 16.0396 8.78229C16.1156 8.576 16.2079 8.38057 16.3165 8.196C16.4359 8.00057 16.5608 7.82143 16.6911 7.65857C16.8322 7.48486 16.9734 7.33829 17.1145 7.21886C17.3751 7.01257 17.6682 6.83343 17.9939 6.68143C18.3305 6.52943 18.6779 6.41543 19.0362 6.33943C19.4054 6.26343 19.7691 6.23086 20.1274 6.24171C20.4965 6.25257 20.8385 6.30686 21.1534 6.40457C22.0219 6.676 22.6951 7.10486 23.1728 7.69114C23.6505 8.27743 23.8894 9.03743 23.8894 9.97114C23.8894 10.4163 23.8459 10.818 23.7591 11.1763C23.6831 11.5237 23.5419 11.8603 23.3356 12.186C23.1402 12.5117 22.8742 12.8429 22.5376 13.1794C22.2119 13.516 21.8048 13.8851 21.3162 14.2869C21.1534 14.428 20.9851 14.5691 20.8114 14.7103C20.6376 14.8514 20.4639 14.9926 20.2902 15.1337C20.2359 15.1771 20.1328 15.2423 19.9808 15.3291C19.8288 15.416 19.6931 15.5029 19.5736 15.5897C19.4542 15.6766 19.3836 15.758 19.3619 15.834C19.3402 15.91 19.4271 15.9534 19.6225 15.9643C19.8614 15.986 20.0514 15.9914 20.1925 15.9806C20.3336 15.9697 20.5236 15.9643 20.7625 15.9643C21.0448 15.9643 21.3216 15.9589 21.5931 15.948C21.8645 15.9371 22.1359 15.9426 22.4074 15.9643C22.5159 15.9751 22.6354 15.9806 22.7656 15.9806C22.8959 15.9697 23.0262 15.9697 23.1565 15.9806C23.2868 15.9806 23.4116 15.9969 23.5311 16.0294C23.6505 16.0511 23.7536 16.1 23.8405 16.176C23.9274 16.252 23.9925 16.3551 24.0359 16.4854C24.0794 16.6157 24.1011 16.7569 24.1011 16.9089C24.1119 17.05 24.1011 17.1911 24.0685 17.3323C24.0359 17.4626 23.9816 17.5657 23.9056 17.6417C23.7645 17.8046 23.5908 17.886 23.3845 17.886C23.1782 17.8751 22.9828 17.8697 22.7982 17.8697H16.9516C16.8431 17.8697 16.7236 17.8751 16.5934 17.886C16.4739 17.8969 16.3654 17.886 16.2676 17.8534C16.0722 17.7991 15.9745 17.696 15.9745 17.544C15.9854 17.392 15.9908 17.2346 15.9908 17.0717C15.9908 16.8003 16.0559 16.5506 16.1862 16.3226C16.3165 16.0837 16.4794 15.8666 16.6748 15.6711C16.8811 15.4649 17.0982 15.2749 17.3262 15.1011C17.5542 14.9274 17.7659 14.7591 17.9614 14.5963C18.2436 14.3466 18.5476 14.0969 18.8734 13.8471C19.1991 13.5974 19.5085 13.3477 19.8016 13.098C20.1816 12.7831 20.5019 12.4954 20.7625 12.2349C21.0339 11.9743 21.2511 11.73 21.4139 11.502C21.5768 11.274 21.6962 11.0514 21.7722 10.8343C21.8482 10.6063 21.8862 10.3674 21.8862 10.1177C21.8862 9.564 21.7179 9.14057 21.3814 8.84743C21.0448 8.54343 20.6159 8.39143 20.0948 8.39143C19.7148 8.39143 19.3565 8.47286 19.0199 8.63571C18.6942 8.79857 18.4228 9.03743 18.2056 9.35229C18.1405 9.47171 18.0754 9.59657 18.0102 9.72686C17.9559 9.84629 17.8908 9.96029 17.8148 10.0689Z" fill="#666666"/>
</g>
<defs>
<clipPath id="clip0_1_195">
<rect width="24" height="24" fill="white"/>
</clipPath>
</defs>
</svg>
