<svg width="24" height="24" viewBox="0 0 24 24" fill="none" xmlns="http://www.w3.org/2000/svg">
<g clip-path="url(#clip0_1_200)">
<path d="M12.0549 17.2834C12.0657 17.392 12.0549 17.4951 12.0223 17.5929C12.0006 17.658 11.968 17.7123 11.9246 17.7557C11.892 17.7991 11.8486 17.8426 11.7943 17.886C11.6966 17.9511 11.5771 18.0109 11.436 18.0651C11.3491 18.0869 11.2623 18.1031 11.1754 18.114C11.0994 18.1357 11.018 18.1357 10.9311 18.114C10.7574 18.1031 10.6054 18.038 10.4751 17.9186C10.2906 17.7666 10.1386 17.5983 10.0191 17.4137C9.96486 17.3269 9.90514 17.2291 9.84 17.1206C9.77486 17.012 9.71514 16.898 9.66086 16.7786L7.85314 13.3423C7.76629 13.3423 7.67943 13.3477 7.59257 13.3586C7.50571 13.3586 7.41886 13.364 7.332 13.3749C7.104 13.3966 6.88686 13.402 6.68057 13.3911C6.48514 13.3803 6.27886 13.3803 6.06171 13.3911H5.75229V16.3389C5.75229 16.4257 5.74686 16.5071 5.736 16.5831C5.736 16.6591 5.736 16.7406 5.736 16.8274C5.736 16.8817 5.73057 16.9523 5.71971 17.0391C5.71971 17.126 5.71429 17.2074 5.70343 17.2834C5.68171 17.4029 5.63286 17.5277 5.55686 17.658C5.48086 17.7774 5.37771 17.8806 5.24743 17.9674C5.01943 18.1086 4.74257 18.1466 4.41686 18.0814C4.27571 18.0489 4.14 17.9946 4.00971 17.9186C3.96629 17.886 3.92829 17.848 3.89571 17.8046C3.86314 17.7503 3.836 17.696 3.81429 17.6417C3.79257 17.5874 3.77086 17.5331 3.74914 17.4789C3.73829 17.4137 3.722 17.354 3.70029 17.2997C3.66771 17.1911 3.65143 17.088 3.65143 16.9903V7.74C3.65143 7.67486 3.65143 7.60971 3.65143 7.54457C3.66229 7.46857 3.67314 7.40343 3.684 7.34914C3.69486 7.22971 3.73286 7.11029 3.798 6.99086C3.83057 6.86057 3.88486 6.76829 3.96086 6.714C4.026 6.64886 4.12371 6.59457 4.254 6.55114C4.39514 6.49686 4.596 6.47514 4.85657 6.486C5.34514 6.49686 5.82829 6.50229 6.306 6.50229C6.78371 6.50229 7.26143 6.51314 7.73914 6.53486C8.054 6.55657 8.38514 6.59457 8.73257 6.64886C9.09086 6.69229 9.422 6.77371 9.726 6.89314C9.92143 6.96914 10.1006 7.04514 10.2634 7.12114C10.4697 7.24057 10.6326 7.35457 10.752 7.46314C11.132 7.81057 11.4197 8.22857 11.6151 8.71714C11.8106 9.20571 11.9083 9.69971 11.9083 10.1991C11.9083 10.7854 11.7671 11.3229 11.4849 11.8114C11.2134 12.3 10.7737 12.6637 10.1657 12.9026C10.144 12.9243 10.1114 12.9406 10.068 12.9514C10.0354 12.9514 10.0083 12.9569 9.98657 12.9677L11.4849 15.9806L11.6314 16.2411C11.6531 16.2846 11.6803 16.3334 11.7129 16.3877C11.7454 16.442 11.7726 16.4963 11.7943 16.5506C11.8269 16.6049 11.854 16.6646 11.8757 16.7297C11.9083 16.7949 11.9409 16.8546 11.9734 16.9089C12.006 17.0609 12.0331 17.1857 12.0549 17.2834ZM7.98343 11.4857C8.17886 11.4857 8.36343 11.4531 8.53714 11.388C8.72171 11.312 8.88457 11.2143 9.02571 11.0949C9.17771 10.9754 9.30257 10.8397 9.40029 10.6877C9.498 10.5249 9.55229 10.3511 9.56314 10.1666C9.60657 9.62371 9.46543 9.222 9.13971 8.96143C8.814 8.69 8.38514 8.54343 7.85314 8.52171C7.53829 8.5 7.19086 8.48914 6.81086 8.48914C6.44171 8.48914 6.08886 8.48914 5.75229 8.48914C5.76314 8.93429 5.76314 9.39029 5.75229 9.85714C5.75229 10.3131 5.75229 10.856 5.75229 11.4857H7.98343ZM16.1699 8.04943C16.0288 7.91914 15.9582 7.72371 15.9582 7.46314C15.9691 7.34371 15.9908 7.22971 16.0234 7.12114C16.0559 7.00171 16.1156 6.89857 16.2025 6.81171C16.4414 6.59457 16.6965 6.46971 16.9679 6.43714C17.2394 6.40457 17.5325 6.37743 17.8474 6.35571C18.0971 6.34486 18.3196 6.34486 18.5151 6.35571C18.7105 6.35571 18.9331 6.35571 19.1828 6.35571C19.5628 6.35571 19.9754 6.36114 20.4205 6.372C20.8765 6.38286 21.3054 6.39914 21.7071 6.42086C21.8699 6.43171 22.0328 6.45343 22.1956 6.486C22.3585 6.51857 22.5051 6.57829 22.6354 6.66514C22.7656 6.74114 22.8688 6.84429 22.9448 6.97457C23.0316 7.094 23.0805 7.246 23.0914 7.43057C23.1022 7.64771 23.0696 7.854 22.9936 8.04943C22.9285 8.24486 22.8362 8.43486 22.7168 8.61943C22.5974 8.79314 22.4616 8.96143 22.3096 9.12429C22.1685 9.27629 22.0328 9.41743 21.9025 9.54771C21.6636 9.79743 21.3922 10.0634 21.0882 10.3457C20.7842 10.628 20.5128 10.894 20.2739 11.1437C20.6974 11.198 21.1045 11.2957 21.4954 11.4369C21.8971 11.578 22.2499 11.7734 22.5539 12.0231C22.8579 12.2729 23.0968 12.5877 23.2705 12.9677C23.4551 13.3369 23.5474 13.782 23.5474 14.3031C23.5474 14.8243 23.4442 15.3074 23.2379 15.7526C23.0425 16.1977 22.7656 16.5886 22.4074 16.9251C22.0491 17.2509 21.6256 17.506 21.1371 17.6906C20.6485 17.8751 20.1111 17.9674 19.5248 17.9674C19.2751 17.9674 19.0036 17.9457 18.7105 17.9023C18.4282 17.8589 18.1459 17.7937 17.8636 17.7069C17.5814 17.62 17.3099 17.5114 17.0494 17.3811C16.7996 17.24 16.5825 17.0717 16.3979 16.8763C16.2676 16.746 16.1536 16.594 16.0559 16.4203C15.9691 16.2357 15.9148 16.0511 15.8931 15.8666C15.8822 15.6711 15.9202 15.4974 16.0071 15.3454C16.0939 15.1826 16.2459 15.0631 16.4631 14.9871C16.6259 14.9329 16.7834 14.9111 16.9354 14.922C17.0874 14.9329 17.2339 14.9709 17.3751 15.036C17.5162 15.0903 17.6519 15.1554 17.7822 15.2314C17.9234 15.3074 18.0591 15.3834 18.1894 15.4594C18.5911 15.7091 19.0091 15.8557 19.4434 15.8991C19.8885 15.9426 20.3228 15.8394 20.7462 15.5897C20.9851 15.4486 21.1588 15.2749 21.2674 15.0686C21.3759 14.8514 21.4194 14.6343 21.3976 14.4171C21.3868 14.2 21.3162 13.9937 21.1859 13.7983C21.0665 13.6029 20.8982 13.44 20.6811 13.3097C20.4748 13.1903 20.2468 13.1089 19.9971 13.0654C19.7474 13.022 19.4976 12.9786 19.2479 12.9351C18.9982 12.8917 18.7594 12.832 18.5314 12.756C18.3034 12.68 18.1079 12.5497 17.9451 12.3651C17.7605 12.1589 17.7008 11.9363 17.7659 11.6974C17.8311 11.4586 17.9505 11.2251 18.1242 10.9971C18.3088 10.7691 18.5096 10.552 18.7268 10.3457C18.9548 10.1394 19.1339 9.96571 19.2642 9.82457C19.3402 9.74857 19.4271 9.65629 19.5248 9.54771C19.6334 9.43914 19.7311 9.33057 19.8179 9.222C19.9156 9.11343 19.9971 9.01029 20.0622 8.91257C20.1382 8.804 20.1871 8.70629 20.2088 8.61943C20.2414 8.53257 20.2251 8.47286 20.1599 8.44029C20.0948 8.39686 20.0134 8.37514 19.9156 8.37514C19.8179 8.36429 19.7094 8.36429 19.5899 8.37514C19.4814 8.37514 19.3945 8.37514 19.3294 8.37514H18.2382C18.0862 8.37514 17.9179 8.38057 17.7334 8.39143C17.5488 8.39143 17.3588 8.386 17.1634 8.37514C16.9788 8.35343 16.7942 8.32086 16.6096 8.27743C16.4359 8.234 16.2894 8.158 16.1699 8.04943Z" fill="#666666"/>
</g>
<defs>
<clipPath id="clip0_1_200">
<rect width="24" height="24" fill="white"/>
</clipPath>
</defs>
</svg>
